D:\school\WTK\thesis\model\3dpredictsim\Results\batch_windlass\Pog_s1_tmt_aCst_d05_k1000_WL20_ig24_act_TTC_GRF.mot
nRows=17
nColumns=19

name D:\school\WTK\thesis\model\3dpredictsim\Results\batch_windlass\Pog_s1_tmt_aCst_d05_k1000_WL20_ig24_act_TTC_GRF.mot
datacolumns 19
datarows 17
range 0.0000000000 0.1978894108
endheader
time 	ground_force_vx	ground_force_vy	ground_force_vz	ground_force_px	ground_force_py	ground_force_pz	1_ground_force_vx	1_ground_force_vy	1_ground_force_vz	1_ground_force_px	1_ground_force_py	1_ground_force_pz	ground_torque_x	ground_torque_y	ground_torque_z	1_ground_torque_x	1_ground_torque_y	1_ground_torque_z
        0.0000000000	      -49.0999123812	       34.5341656248	        6.9640745960	        0.1635944245	        0.0000000000	        0.0623326719	       93.9141653377	      369.9292658146	       -0.6822603875	       -0.3780883686	        0.0000000000	       -0.0352649206	        0.0000000000	        0.0000000000	        0.0000000000	        0.0000000000	        0.0000000000	        0.0000000000	
        0.0123680882	     -117.8581045913	       99.6085057156	       20.2288088751	        0.1777261060	        0.0000000000	        0.0610274077	       57.5564107476	      265.3556857466	       -9.4592121020	       -0.3668100762	        0.0000000000	       -0.0310724669	        0.0000000000	        0.0000000000	        0.0000000000	        0.0000000000	        0.0000000000	        0.0000000000	
        0.0247361763	     -139.1304974490	      286.4980982128	       23.1784494767	        0.1956214588	        0.0000000000	        0.0618549550	       40.9288936216	      213.8933292886	      -16.2584897141	       -0.3618243481	        0.0000000000	       -0.0291016553	        0.0000000000	        0.0000000000	        0.0000000000	        0.0000000000	        0.0000000000	        0.0000000000	
        0.0371042645	     -112.3059237917	      657.2061830203	      -17.6820126879	        0.2080445880	        0.0000000000	        0.0630659031	       36.5892590598	      171.2339264386	      -15.8023729007	       -0.3616992514	        0.0000000000	       -0.0291390484	        0.0000000000	        0.0000000000	        0.0000000000	        0.0000000000	        0.0000000000	        0.0000000000	
        0.0494723527	     -147.1692824561	      894.2430633454	      -30.9765673583	        0.2181247680	        0.0000000000	        0.0631698937	       24.2295847476	      115.1175831218	      -14.1414745656	       -0.3617447993	        0.0000000000	       -0.0292475158	        0.0000000000	        0.0000000000	        0.0000000000	        0.0000000000	        0.0000000000	        0.0000000000	
        0.0618404409	     -186.1221016020	      994.5901448217	      -29.1888818093	        0.2310195304	        0.0000000000	        0.0618156555	        3.6146594737	       45.0247865709	       -8.8332145953	       -0.3627158093	        0.0000000000	       -0.0295988947	        0.0000000000	        0.0000000000	        0.0000000000	        0.0000000000	        0.0000000000	        0.0000000000	
        0.0742085290	     -175.7168506483	      953.7812562900	      -22.4435607126	        0.2397252081	        0.0000000000	        0.0603670022	        0.1821434637	       -0.1938337694	        0.0205440698	        0.0000000000	        0.0000000000	        0.0000000000	        0.0000000000	        0.0000000000	        0.0000000000	        0.0000000000	        0.0000000000	        0.0000000000	
        0.0865766172	     -143.3976543661	      847.1644007659	      -18.1297504254	        0.2436649000	        0.0000000000	        0.0596061020	        0.0000724287	       -0.0000662644	        0.0000029933	        0.0000000000	        0.0000000000	        0.0000000000	        0.0000000000	        0.0000000000	        0.0000000000	        0.0000000000	        0.0000000000	        0.0000000000	
        0.0989447054	     -117.8954261781	      762.6021476589	      -15.9085366768	        0.2475363185	        0.0000000000	        0.0591246135	        0.0000006719	       -0.0000005495	        0.0000000284	        0.0000000000	        0.0000000000	        0.0000000000	        0.0000000000	        0.0000000000	        0.0000000000	        0.0000000000	        0.0000000000	        0.0000000000	
        0.1113127935	     -105.0364316467	      718.5496326558	      -15.7163704213	        0.2513013550	        0.0000000000	        0.0587615250	        0.0000001428	       -0.0000001088	        0.0000000064	        0.0000000000	        0.0000000000	        0.0000000000	        0.0000000000	        0.0000000000	        0.0000000000	        0.0000000000	        0.0000000000	        0.0000000000	
        0.1236808817	      -92.5585279595	      698.1031005073	      -18.7750194023	        0.2544200039	        0.0000000000	        0.0584896348	        0.0000009669	       -0.0000006726	        0.0000000268	        0.0000000000	        0.0000000000	        0.0000000000	        0.0000000000	        0.0000000000	        0.0000000000	        0.0000000000	        0.0000000000	        0.0000000000	
        0.1360489699	      -79.3911296696	      676.7471652411	      -19.9910545083	        0.2575210719	        0.0000000000	        0.0583147351	        0.0000689257	       -0.0000429576	       -0.0000007543	        0.0000000000	        0.0000000000	        0.0000000000	        0.0000000000	        0.0000000000	        0.0000000000	        0.0000000000	        0.0000000000	        0.0000000000	
        0.1484170581	      -66.6493419088	      655.9110123669	      -20.1996514298	        0.2612767588	        0.0000000000	        0.0581384404	       -0.0011887473	        0.0006748363	        0.0000391383	        0.0000000000	        0.0000000000	        0.0000000000	        0.0000000000	        0.0000000000	        0.0000000000	        0.0000000000	        0.0000000000	        0.0000000000	
        0.1607851462	      -56.2428890956	      638.3951680680	      -20.7978871701	        0.2662730511	        0.0000000000	        0.0578177726	       -0.0008266053	        0.0004344445	        0.0000399107	        0.0000000000	        0.0000000000	        0.0000000000	        0.0000000000	        0.0000000000	        0.0000000000	        0.0000000000	        0.0000000000	        0.0000000000	
        0.1731532344	      -48.5246316507	      624.7671791496	      -21.1801223650	        0.2723424213	        0.0000000000	        0.0573275188	       -0.0005722898	        0.0002824561	        0.0000332995	        0.0000000000	        0.0000000000	        0.0000000000	        0.0000000000	        0.0000000000	        0.0000000000	        0.0000000000	        0.0000000000	        0.0000000000	
        0.1855213226	      -43.0170740345	      613.9720623004	      -21.2093550971	        0.2789021861	        0.0000000000	        0.0567172578	       -0.0005501104	        0.0002580675	        0.0000353401	        0.0000000000	        0.0000000000	        0.0000000000	        0.0000000000	        0.0000000000	        0.0000000000	        0.0000000000	        0.0000000000	        0.0000000000	
        0.1978894108	      -38.6104564543	      605.6569069592	      -20.6621505775	        0.2854725045	        0.0000000000	        0.0560593110	       -0.0007305521	        0.0003290380	        0.0000488015	        0.0000000000	        0.0000000000	        0.0000000000	        0.0000000000	        0.0000000000	        0.0000000000	        0.0000000000	        0.0000000000	        0.0000000000	
